<?xml version="1.0" encoding="UTF-8" standalone="no"?>
<!DOCTYPE svg PUBLIC "-//W3C//DTD SVG 1.1//EN" "http://www.w3.org/Graphics/SVG/1.1/DTD/svg11.dtd">
<svg
  width="100%"
  height="100%"
  viewBox="0 0 86 86"
  version="1.1"
  xmlns="http://www.w3.org/2000/svg"
  xmlns:xlink="http://www.w3.org/1999/xlink"
  xml:space="preserve"
  xmlns:serif="http://www.serif.com/"
  style="
    fill-rule: evenodd;
    clip-rule: evenodd;
    stroke-linecap: round;
    stroke-linejoin: round;
    stroke-miterlimit: 1.5;
  "
>
  <g transform="matrix(1,0,0,1,-587.069,-89.4097)">
    <g transform="matrix(0.359626,0.49807,-0.49807,0.359626,622.274,-13.8151)">
      <path
        d="M200.329,46.315C201.566,90.68 236.781,126.72 280.852,129.1L285.495,129.1C284.392,129.1 283.294,129.121 282.201,129.162C283.294,129.204 284.392,129.225 285.495,129.225L280.844,129.225C236.777,131.601 201.566,167.527 200.329,211.885L200.329,214.174C200.329,213.627 200.324,213.081 200.313,212.536C200.301,213.123 200.295,213.711 200.295,214.3L200.295,211.759C199.058,167.401 163.847,131.475 119.78,129.1L115.129,129.1C116.232,129.1 117.33,129.079 118.422,129.037C117.33,128.995 116.232,128.974 115.129,128.974L119.772,128.974C163.843,126.595 199.058,90.554 200.295,46.189L200.295,43.9C200.295,44.447 200.3,44.993 200.311,45.538C200.323,44.951 200.329,44.363 200.329,43.774L200.329,46.315Z"
        style="
          fill-opacity: 0;
          stroke: rgb(246, 238, 225, 0.5);
          stroke-width: 1.63px;
        "
      />
    </g>
  </g>
</svg>
