<?xml version="1.0" encoding="UTF-8" standalone="no"?>
<!DOCTYPE svg PUBLIC "-//W3C//DTD SVG 1.1//EN" "http://www.w3.org/Graphics/SVG/1.1/DTD/svg11.dtd">
<svg width="100%" height="100%" viewBox="0 0 561 240" version="1.1" xmlns="http://www.w3.org/2000/svg" xmlns:xlink="http://www.w3.org/1999/xlink" xml:space="preserve" xmlns:serif="http://www.serif.com/" style="fill-rule:evenodd;clip-rule:evenodd;stroke-linecap:round;stroke-linejoin:round;stroke-miterlimit:1.5;">
    <g transform="matrix(1,0,0,1,-120.576,-67.9933)">
        <g transform="matrix(1.05119,0.000901911,0.198839,0.746942,-62.555,70.4589)">
            <path d="M660.451,87.43L160.754,71.152L162.389,288.236L647.074,261.354L660.451,87.43Z" style="fill:rgb(164,68,56);"/>
        </g>
        <g transform="matrix(1,0,0,1,107.814,33.5367)">
            <text x="111.976px" y="179.537px" style="font-family:'FontdinerSwanky-Regular', 'Fontdiner Swanky';font-size:72px;fill:rgb(246,238,225);">astr<tspan x="263.499px 313.562px 343.304px 387.531px " y="179.537px 179.537px 179.537px 179.537px ">otur</tspan>f</text>
        </g>
        <g transform="matrix(-0.396147,0.539875,-0.399078,-0.292833,184.166,127.478)">
            <path d="M114.267,-102.941L9.048,-17.164L1.856,-85.256L2.232,-11.725L-52.955,-9.689L-4.467,-5.417L-74.068,66.581L1.93,5.361L-2.952,79.803L9.951,-1.349L87.303,13.412L16.29,-9.185L114.267,-102.941Z" style="fill:rgb(246,238,225);"/>
        </g>
        <g transform="matrix(0.592129,0.16367,-0.16367,0.592129,532.551,23.1678)">
            <path d="M200.329,46.315C201.566,90.68 236.781,126.72 280.852,129.1L285.495,129.1C284.392,129.1 283.294,129.121 282.201,129.162C283.294,129.204 284.392,129.225 285.495,129.225L280.844,129.225C236.777,131.601 201.566,167.527 200.329,211.885L200.329,214.174C200.329,213.627 200.324,213.081 200.313,212.536C200.301,213.123 200.295,213.711 200.295,214.3L200.295,211.759C199.058,167.401 163.847,131.475 119.78,129.1L115.129,129.1C116.232,129.1 117.33,129.079 118.422,129.037C117.33,128.995 116.232,128.974 115.129,128.974L119.772,128.974C163.843,126.595 199.058,90.554 200.295,46.189L200.295,43.9C200.295,44.447 200.3,44.993 200.311,45.538C200.323,44.951 200.329,44.363 200.329,43.774L200.329,46.315Z" style="fill:rgb(223,255,244);fill-opacity:0;stroke:rgb(246,238,225);stroke-width:1.63px;"/>
        </g>
        <g transform="matrix(0.417077,0.211014,-0.169602,0.335226,136.02,193.034)">
            <path d="M200.329,46.315C201.566,90.68 236.781,126.72 280.852,129.1L285.495,129.1C284.392,129.1 283.294,129.121 282.201,129.162C283.294,129.204 284.392,129.225 285.495,129.225L280.844,129.225C236.777,131.601 201.566,167.527 200.329,211.885L200.329,214.174C200.329,213.627 200.324,213.081 200.313,212.536C200.301,213.123 200.295,213.711 200.295,214.3L200.295,211.759C199.058,167.401 163.847,131.475 119.78,129.1L115.129,129.1C116.232,129.1 117.33,129.079 118.422,129.037C117.33,128.995 116.232,128.974 115.129,128.974L119.772,128.974C163.843,126.595 199.058,90.554 200.295,46.189L200.295,43.9C200.295,44.447 200.3,44.993 200.311,45.538C200.323,44.951 200.329,44.363 200.329,43.774L200.329,46.315Z" style="fill:rgb(223,255,244);fill-opacity:0;stroke:rgb(246,238,225);stroke-width:2.36px;"/>
        </g>
        <g transform="matrix(1,0,0,1,56.8638,172.698)">
            <path d="M263.186,85.861C262.226,85.861 261.488,85.593 260.972,85.057C260.456,84.521 260.198,83.749 260.198,82.741L260.198,75.301L258.734,75.301C258.606,75.301 258.498,75.263 258.41,75.187C258.322,75.111 258.278,74.993 258.278,74.833L258.278,73.981L260.27,73.729L260.762,69.973C260.786,69.853 260.84,69.755 260.924,69.679C261.008,69.603 261.118,69.565 261.254,69.565L262.334,69.565L262.334,73.753L268.058,73.753L268.55,69.973C268.574,69.853 268.628,69.755 268.712,69.679C268.796,69.603 268.906,69.565 269.042,69.565L270.122,69.565L270.122,73.753L273.638,73.753L273.638,75.301L270.122,75.301L270.122,82.597C270.122,83.109 270.248,83.489 270.5,83.737C270.752,83.985 271.07,84.109 271.454,84.109C271.678,84.109 271.872,84.079 272.036,84.019C272.2,83.959 272.342,83.893 272.462,83.821C272.582,83.749 272.684,83.683 272.768,83.623C272.852,83.563 272.926,83.533 272.99,83.533C273.11,83.533 273.21,83.601 273.29,83.737L273.926,84.757C273.55,85.101 273.102,85.371 272.582,85.567C272.062,85.763 271.526,85.861 270.974,85.861C270.022,85.861 269.286,85.593 268.766,85.057C268.246,84.521 267.986,83.749 267.986,82.741L267.986,75.301L262.334,75.301L262.334,82.597C262.334,83.109 262.458,83.489 262.706,83.737C262.954,83.985 263.274,84.109 263.666,84.109C263.89,84.109 264.084,84.079 264.248,84.019C264.412,83.959 264.554,83.893 264.674,83.821C264.794,83.749 264.896,83.683 264.98,83.623C265.064,83.563 265.138,83.533 265.202,83.533C265.314,83.533 265.414,83.601 265.502,83.737L266.126,84.757C265.758,85.101 265.314,85.371 264.794,85.567C264.274,85.763 263.738,85.861 263.186,85.861Z" style="fill:rgb(246,238,225);"/>
            <text x="229.838px" y="85.669px" style="font-family:'Lato-Regular', 'Lato', sans-serif;font-size:24px;fill:rgb(246,238,225);">B<tspan x="245.174px 274.094px 286.766px 294.998px " y="85.669px 85.669px 85.669px 85.669px ">eer </tspan>styling thr<tspan x="406.19px " y="85.669px ">o</tspan>ugh c<tspan x="476.438px " y="85.669px ">o</tspan>mpiling!</text>
        </g>
    </g>
</svg>
