<svg viewBox="0 0 561 240" xmlns="http://www.w3.org/2000/svg" xml:space="preserve" fill-rule="evenodd" clip-rule="evenodd" stroke-linecap="round" stroke-linejoin="round" stroke-miterlimit="1.5">
  <path d="M528.51 68.37 0 55.76 44.88 217.9l504.15-19.64-20.52-129.9Z" fill="#a44438"/>
  <path d="m59.4 151.32 7.46-81.92 30.02 16.05-29.5-21.33 21.05-30.39-20.9 24.93L66.35 0 60.7 58.96 32.9 34.52 60.2 65.25 23.65 102.7 60.8 70.97l-1.4 80.35Z" fill="#f6eee1"/>
  <path d="M523.02 15.39a52.44 52.44 0 0 0 34.13 62.2l2.75.76c-.66-.19-1.31-.35-1.97-.5.64.2 1.3.39 1.94.57l-2.75-.76a52.37 52.37 0 0 0-61.2 35.77l-.38 1.35a49.87 49.87 0 0 0-.04.07l.42-1.5a52.37 52.37 0 0 0-34.15-62.13l-2.75-.76c.65.18 1.3.35 1.96.5-.64-.2-1.29-.4-1.94-.57l2.75.76a52.44 52.44 0 0 0 61.23-35.84l.37-1.36a49.87 49.87 0 0 0 .04-.07l-.41 1.5Z" fill="none" stroke="#f6eee1" stroke-width="1.0013579"/>
  <path d="M200.33 46.31c1.24 44.37 36.45 80.41 80.52 82.79h4.64c-1.1 0-2.2.02-3.29.06 1.1.04 2.2.06 3.3.06h-4.66a85.25 85.25 0 0 0-80.51 82.66v2.3c0-.55 0-1.1-.02-1.64a86.3 86.3 0 0 0-.02 1.76v-2.54a85.25 85.25 0 0 0-80.51-82.66h-4.65c1.1 0 2.2-.02 3.3-.06-1.1-.04-2.2-.07-3.3-.07h4.64c44.07-2.38 79.29-38.42 80.52-82.78V43.9l.02 1.64.02-1.77v2.54Z" fill="none" stroke="#f6eee1" stroke-width="2.36" transform="matrix(.41708 .21101 -.1696 .33523 15.44 125.04)"/>
  <g fill="#f6eee1" fill-rule="nonzero">
    <path d="M183.5 186.79c.67 0 1.24-.08 1.72-.23.48-.15.88-.37 1.19-.64.3-.28.53-.6.67-.99.15-.38.22-.8.22-1.25 0-.89-.32-1.6-.95-2.1-.63-.52-1.58-.78-2.84-.78h-3.72v5.99h3.72Zm-3.71-13.51v5.86h3.07c.66 0 1.23-.07 1.71-.21.48-.15.88-.35 1.2-.6.32-.26.55-.57.7-.93.15-.37.23-.77.23-1.2 0-1.01-.3-1.75-.91-2.22-.61-.47-1.55-.7-2.83-.7h-3.17Zm3.17-1.84c1.05 0 1.96.1 2.73.31.76.2 1.39.5 1.88.89.5.38.85.85 1.09 1.4a4.84 4.84 0 0 1 .15 3.1c-.14.4-.33.76-.6 1.1-.26.33-.6.63-1 .9s-.88.48-1.42.65a5.2 5.2 0 0 1 2.85 1.35c.63.66.95 1.53.95 2.6 0 .73-.13 1.4-.4 2-.27.6-.66 1.1-1.18 1.54-.51.43-1.15.76-1.9 1s-1.6.35-2.57.35h-6.07v-17.2h5.49ZM200.44 181.23c0-.5-.07-.95-.21-1.36a3.06 3.06 0 0 0-.61-1.07c-.27-.3-.6-.53-.98-.7a3.3 3.3 0 0 0-1.3-.24c-1.03 0-1.84.3-2.44.9-.6.59-.96 1.42-1.1 2.47h6.64Zm1.73 5.7c-.27.32-.58.6-.95.83a5.9 5.9 0 0 1-1.18.59 7.5 7.5 0 0 1-4.96.03 5.1 5.1 0 0 1-1.83-1.25 5.73 5.73 0 0 1-1.21-2.03 8.27 8.27 0 0 1-.04-5.16 5.17 5.17 0 0 1 2.91-3.19c.7-.3 1.5-.46 2.37-.46.73 0 1.4.12 2.03.36a4.57 4.57 0 0 1 2.67 2.76c.25.68.38 1.45.38 2.31 0 .34-.04.56-.1.68-.08.1-.22.16-.42.16h-8.12c.02.77.13 1.44.32 2 .19.57.45 1.05.78 1.43.34.38.74.66 1.2.85.47.19.99.28 1.56.28.54 0 1-.06 1.39-.18a6.6 6.6 0 0 0 1.7-.8.93.93 0 0 1 .49-.2c.18 0 .31.07.4.21l.6.78ZM208.62 188.83c-.96 0-1.7-.27-2.21-.8-.52-.54-.77-1.31-.77-2.32v-7.44h-1.47a.48.48 0 0 1-.32-.12c-.09-.07-.13-.2-.13-.35v-.85l1.99-.25.49-3.76a.47.47 0 0 1 .5-.4h1.07v4.18h5.73l.49-3.78a.47.47 0 0 1 .5-.4h1.07v4.18h3.52v1.55h-3.52v7.3c0 .5.13.88.38 1.13.25.25.57.38.95.38.23 0 .42-.04.58-.1a2.5 2.5 0 0 0 .74-.4.4.4 0 0 1 .22-.08c.12 0 .22.07.3.2l.63 1.02a4.52 4.52 0 0 1-2.95 1.1c-.95 0-1.69-.26-2.2-.8-.53-.53-.79-1.3-.79-2.31v-7.44h-5.65v7.3c0 .5.13.88.37 1.13.25.25.57.38.96.38.23 0 .42-.04.59-.1a2.5 2.5 0 0 0 .73-.4.4.4 0 0 1 .22-.08c.11 0 .21.07.3.2l.62 1.02a4.52 4.52 0 0 1-2.94 1.1ZM229.36 181.23c0-.5-.07-.95-.21-1.36a3.06 3.06 0 0 0-.61-1.07c-.27-.3-.6-.53-.98-.7a3.3 3.3 0 0 0-1.3-.24c-1.03 0-1.84.3-2.44.9-.6.59-.96 1.42-1.1 2.47h6.64Zm1.73 5.7c-.27.32-.58.6-.95.83a5.9 5.9 0 0 1-1.18.59 7.5 7.5 0 0 1-4.96.03 5.1 5.1 0 0 1-1.83-1.25 5.73 5.73 0 0 1-1.21-2.03 8.27 8.27 0 0 1-.04-5.16 5.17 5.17 0 0 1 2.91-3.19c.7-.3 1.5-.46 2.37-.46.73 0 1.4.12 2.03.36a4.57 4.57 0 0 1 2.67 2.76c.25.68.38 1.45.38 2.31 0 .34-.04.56-.1.68-.08.1-.22.16-.42.16h-8.12c.02.77.13 1.44.32 2 .19.57.45 1.05.78 1.43.34.38.74.66 1.2.85.47.19.99.28 1.56.28.54 0 1-.06 1.39-.18a6.6 6.6 0 0 0 1.7-.8.93.93 0 0 1 .49-.2c.18 0 .31.07.4.21l.6.78ZM235.92 178.91c.39-.83.86-1.48 1.42-1.94a3.1 3.1 0 0 1 2.05-.7c.26 0 .5.02.74.08.24.05.45.14.63.26l-.16 1.6c-.04.2-.16.3-.36.3-.1 0-.27-.03-.49-.07a3.39 3.39 0 0 0-1.76.1c-.3.1-.56.27-.8.49-.24.22-.45.5-.64.81a7 7 0 0 0-.5 1.11v7.69h-2.15v-12.16h1.22c.23 0 .4.04.48.13.09.09.15.24.18.46l.14 1.84ZM255.35 178.48a.47.47 0 0 1-.44.27.84.84 0 0 1-.41-.13 5.24 5.24 0 0 0-1.34-.6 3.75 3.75 0 0 0-2.06 0c-.28.1-.53.22-.73.38-.2.16-.36.34-.47.56-.11.2-.16.44-.16.69 0 .3.09.57.27.78.18.2.41.38.71.54.3.15.63.28 1 .4l1.17.37c.4.13.78.28 1.15.44.38.16.72.36 1.01.6.3.24.54.53.72.88.18.35.27.77.27 1.25 0 .56-.1 1.08-.3 1.56-.2.47-.5.89-.9 1.23-.38.35-.86.63-1.43.83-.57.2-1.23.3-1.97.3a6.14 6.14 0 0 1-4.06-1.48l.5-.81c.07-.1.15-.19.24-.25.08-.05.2-.08.33-.08.15 0 .3.06.46.17.16.11.35.24.58.37a3.83 3.83 0 0 0 2.06.54c.41 0 .78-.05 1.09-.16.31-.1.57-.25.78-.44.2-.18.36-.4.46-.63.1-.25.15-.5.15-.77 0-.34-.09-.62-.27-.84-.18-.22-.42-.4-.71-.56-.3-.16-.64-.3-1.02-.4l-1.16-.38c-.4-.12-.78-.27-1.16-.43a4.1 4.1 0 0 1-1.02-.62 2.8 2.8 0 0 1-.71-.92c-.18-.36-.27-.8-.27-1.32a3.23 3.23 0 0 1 1.13-2.47c.36-.32.82-.58 1.35-.78.54-.19 1.15-.28 1.84-.28.8 0 1.52.12 2.15.38.64.25 1.19.6 1.65 1.03l-.48.78ZM262.4 188.83c-.96 0-1.7-.27-2.22-.8-.51-.54-.77-1.31-.77-2.32v-7.44h-1.47a.48.48 0 0 1-.32-.12c-.09-.07-.13-.2-.13-.35v-.85l1.99-.25.5-3.76a.47.47 0 0 1 .5-.4h1.06v4.18h3.52v1.55h-3.52v7.3c0 .5.13.88.38 1.13.24.25.56.38.96.38.22 0 .41-.04.58-.1a2.5 2.5 0 0 0 .73-.4.4.4 0 0 1 .22-.08c.11 0 .21.07.3.2l.63 1.02a4.52 4.52 0 0 1-2.94 1.1ZM277.76 176.48l-6.78 15.74c-.08.16-.17.3-.27.39-.11.1-.28.14-.5.14h-1.59l2.22-4.82-5.01-11.45h1.85c.18 0 .33.05.43.14.11.09.19.2.23.3l3.25 7.66c.13.33.23.69.32 1.05.11-.37.23-.73.36-1.06l3.16-7.65a.68.68 0 0 1 .63-.44h1.7ZM279.7 170.96h2.15v17.68h-2.14zM287.56 176.48v12.16h-2.14v-12.16h2.14Zm.46-3.82c0 .21-.05.4-.13.59-.08.18-.2.34-.34.47a1.54 1.54 0 0 1-1.66.34 1.64 1.64 0 0 1-.8-.81 1.5 1.5 0 0 1 0-1.18 1.6 1.6 0 0 1 .8-.82 1.5 1.5 0 0 1 1.67.33c.13.14.25.3.33.49.08.19.13.38.13.6ZM293.08 178.24c.26-.3.54-.56.84-.8a5.54 5.54 0 0 1 2-1.01 5.01 5.01 0 0 1 2.96.19c.51.22.93.53 1.27.93.34.4.6.9.78 1.46.17.57.26 1.2.26 1.89v7.73h-2.15v-7.73c0-.93-.2-1.64-.63-2.15-.42-.5-1.05-.76-1.91-.76a3.6 3.6 0 0 0-1.77.46c-.55.3-1.05.71-1.52 1.23v8.95h-2.15v-12.15h1.29c.3 0 .49.15.56.44l.17 1.32ZM308.7 182.7c.42 0 .8-.06 1.13-.19.33-.11.6-.28.83-.5.22-.22.4-.47.5-.77.12-.3.17-.63.17-1 0-.74-.22-1.33-.68-1.77-.45-.44-1.1-.66-1.96-.66-.86 0-1.52.22-1.97.66a2.36 2.36 0 0 0-.68 1.78c0 .36.06.69.17.99a2.13 2.13 0 0 0 1.34 1.27c.33.13.71.19 1.14.19Zm3.84 6.6c0-.3-.08-.54-.25-.73-.17-.18-.4-.32-.68-.43-.28-.1-.61-.17-.99-.22-.37-.04-.77-.08-1.19-.1l-1.28-.07a15 15 0 0 1-1.25-.12c-.44.2-.81.47-1.1.78a1.6 1.6 0 0 0-.21 1.88c.14.23.35.44.64.6.29.18.65.31 1.09.42.43.1.95.14 1.54.14.58 0 1.1-.05 1.55-.15.45-.1.84-.25 1.16-.45.31-.19.55-.41.72-.68.17-.26.25-.55.25-.88Zm2.18-12.34v.8c0 .25-.17.42-.5.5l-1.39.18c.27.52.41 1.1.41 1.75a3.74 3.74 0 0 1-2.72 3.65 6.15 6.15 0 0 1-3.43.07c-.26.16-.46.33-.6.5a.9.9 0 0 0-.2.55c0 .3.12.5.36.66.23.14.54.25.93.31.38.07.82.1 1.31.13.5.01 1 .04 1.51.07.52.04 1.02.1 1.51.19.5.09.93.23 1.32.43.38.2.7.48.93.83.23.35.35.8.35 1.37 0 .52-.13 1.02-.39 1.5a4.1 4.1 0 0 1-1.12 1.31c-.49.38-1.09.69-1.8.91-.7.23-1.5.34-2.39.34-.89 0-1.66-.08-2.33-.26a5.46 5.46 0 0 1-1.65-.7c-.44-.3-.77-.65-1-1.03-.21-.4-.32-.8-.32-1.22 0-.6.19-1.1.56-1.53.38-.41.9-.74 1.55-1a2.22 2.22 0 0 1-.86-.63 1.7 1.7 0 0 1-.32-1.09c0-.18.04-.36.1-.55a3.01 3.01 0 0 1 1.45-1.54 3.74 3.74 0 0 1-1.4-1.34c-.34-.55-.5-1.2-.5-1.93a3.57 3.57 0 0 1 1.3-2.85c.4-.34.88-.6 1.45-.79a5.95 5.95 0 0 1 1.85-.28c.53 0 1.02.06 1.48.18.45.12.87.28 1.25.5h3.3ZM326.81 188.83c-.96 0-1.7-.27-2.21-.8-.52-.54-.78-1.31-.78-2.32v-7.44h-1.46a.48.48 0 0 1-.32-.12c-.1-.07-.14-.2-.14-.35v-.85l2-.25.49-3.76a.47.47 0 0 1 .5-.4h1.07v4.18h3.52v1.55h-3.52v7.3c0 .5.12.88.37 1.13.25.25.57.38.96.38.23 0 .42-.04.58-.1a2.5 2.5 0 0 0 .74-.4.4.4 0 0 1 .22-.08c.11 0 .21.07.3.2l.62 1.02a4.52 4.52 0 0 1-2.94 1.1ZM333.83 178.1c.52-.55 1.1-1 1.73-1.32.63-.33 1.36-.5 2.18-.5.67 0 1.25.12 1.76.34.51.22.93.53 1.27.93.34.4.6.9.78 1.46.17.57.26 1.2.26 1.89v7.73h-2.15v-7.73c0-.93-.2-1.64-.63-2.15-.42-.5-1.05-.76-1.91-.76a3.6 3.6 0 0 0-1.77.46c-.55.3-1.05.71-1.52 1.23v8.95h-2.15v-17.67h2.15v7.14ZM347.1 178.91c.39-.83.86-1.48 1.42-1.94a3.1 3.1 0 0 1 2.05-.7c.26 0 .5.02.74.08.24.05.45.14.63.26l-.16 1.6c-.04.2-.16.3-.36.3-.1 0-.27-.03-.49-.07a3.39 3.39 0 0 0-1.76.1c-.3.1-.56.27-.8.49-.24.22-.45.5-.64.81a7 7 0 0 0-.5 1.11v7.69h-2.15v-12.16h1.22c.23 0 .4.04.48.13.09.09.15.24.18.46l.14 1.84ZM358.44 176.29c.9 0 1.7.15 2.4.44a5.14 5.14 0 0 1 2.99 3.24c.26.77.4 1.63.4 2.58 0 .96-.14 1.82-.4 2.6a5.08 5.08 0 0 1-2.98 3.22c-.72.29-1.52.43-2.4.43-.9 0-1.7-.14-2.42-.44a5.07 5.07 0 0 1-3-3.22 7.83 7.83 0 0 1-.4-2.59c0-.95.14-1.81.4-2.59.28-.77.66-1.43 1.17-1.97.5-.54 1.11-.96 1.83-1.26.71-.3 1.52-.44 2.41-.44Zm0 10.84c1.2 0 2.1-.4 2.7-1.2.58-.8.88-1.93.88-3.37 0-1.44-.3-2.57-.89-3.38-.59-.8-1.49-1.21-2.69-1.21-.6 0-1.13.1-1.59.3-.45.22-.82.52-1.12.9a4 4 0 0 0-.68 1.46 7.75 7.75 0 0 0-.22 1.93c0 1.44.3 2.56.9 3.37.6.8 1.5 1.2 2.71 1.2ZM376.92 176.48v12.16h-1.27c-.3 0-.5-.15-.57-.45l-.17-1.3a6.69 6.69 0 0 1-1.78 1.4c-.65.36-1.4.54-2.25.54-.67 0-1.25-.11-1.76-.33-.51-.22-.94-.53-1.28-.93-.34-.4-.6-.89-.77-1.45a6.48 6.48 0 0 1-.26-1.89v-7.75h2.13v7.75c0 .92.21 1.63.63 2.14.42.5 1.07.75 1.93.75.63 0 1.22-.15 1.77-.45.55-.3 1.05-.71 1.52-1.24v-8.95h2.13ZM384.54 182.7c.44 0 .82-.06 1.14-.19.33-.11.6-.28.83-.5.23-.22.4-.47.5-.77.12-.3.17-.63.17-1 0-.74-.22-1.33-.67-1.77-.46-.44-1.11-.66-1.97-.66-.86 0-1.52.22-1.97.66a2.36 2.36 0 0 0-.68 1.78c0 .36.06.69.18.99a2.13 2.13 0 0 0 1.33 1.27c.33.13.71.19 1.14.19Zm3.86 6.6c0-.3-.09-.54-.26-.73-.16-.18-.39-.32-.67-.43-.29-.1-.62-.17-1-.22-.37-.04-.77-.08-1.19-.1l-1.28-.07a15 15 0 0 1-1.24-.12c-.45.2-.82.47-1.1.78a1.6 1.6 0 0 0-.22 1.88c.14.23.36.44.64.6.3.18.65.31 1.09.42.44.1.95.14 1.54.14.58 0 1.1-.05 1.55-.15.46-.1.84-.25 1.16-.45.31-.19.56-.41.72-.68.17-.26.26-.55.26-.88Zm2.17-12.34v.8c0 .25-.17.42-.5.5l-1.39.18c.28.52.41 1.1.41 1.75a3.74 3.74 0 0 1-2.72 3.65 6.15 6.15 0 0 1-3.43.07c-.26.16-.46.33-.6.5a.9.9 0 0 0-.2.55c0 .3.12.5.36.66.23.14.54.25.93.31.38.07.82.1 1.31.13.5.01 1 .04 1.51.07.52.04 1.02.1 1.52.19.49.09.93.23 1.31.43.38.2.7.48.93.83.24.35.35.8.35 1.37 0 .52-.13 1.02-.39 1.5a4.1 4.1 0 0 1-1.12 1.31c-.49.38-1.08.69-1.8.91-.7.23-1.5.34-2.39.34-.88 0-1.66-.08-2.32-.26a5.46 5.46 0 0 1-1.66-.7c-.44-.3-.77-.65-.99-1.03-.22-.4-.33-.8-.33-1.22 0-.6.19-1.1.56-1.53.38-.41.9-.74 1.55-1a2.22 2.22 0 0 1-.86-.63 1.7 1.7 0 0 1-.31-1.09c0-.18.03-.36.1-.55.06-.18.15-.37.29-.56a3.01 3.01 0 0 1 1.15-.98 3.74 3.74 0 0 1-1.4-1.34c-.34-.55-.5-1.2-.5-1.93a3.57 3.57 0 0 1 1.3-2.85c.4-.34.89-.6 1.45-.79a5.95 5.95 0 0 1 1.85-.28c.53 0 1.02.06 1.48.18.46.12.87.28 1.25.5h3.3ZM394.94 178.1c.52-.55 1.1-1 1.72-1.32.64-.33 1.36-.5 2.19-.5.66 0 1.25.12 1.76.34.5.22.93.53 1.27.93.34.4.6.9.77 1.46.18.57.27 1.2.27 1.89v7.73h-2.15v-7.73c0-.93-.21-1.64-.63-2.15-.42-.5-1.06-.76-1.92-.76a3.6 3.6 0 0 0-1.77.46c-.54.3-1.05.71-1.51 1.23v8.95h-2.15v-17.67h2.15v7.14ZM420.78 178.64a.95.95 0 0 1-.19.2.43.43 0 0 1-.26.07.71.71 0 0 1-.4-.15c-.14-.1-.32-.2-.53-.32a3.7 3.7 0 0 0-1.91-.48c-.6 0-1.13.1-1.59.31-.46.21-.84.52-1.15.92-.3.4-.54.88-.7 1.45a7.2 7.2 0 0 0-.23 1.91c0 .74.09 1.4.26 1.96.16.58.4 1.06.71 1.44.3.4.68.69 1.12.9.43.2.92.3 1.47.3a3.76 3.76 0 0 0 2.11-.6l.56-.42c.14-.12.29-.18.43-.18.18 0 .32.06.41.2l.6.78c-.26.33-.56.6-.9.84a5.54 5.54 0 0 1-2.3.92c-.43.08-.86.11-1.3.11-.76 0-1.46-.14-2.12-.42a4.83 4.83 0 0 1-1.7-1.22 5.7 5.7 0 0 1-1.12-1.96 8 8 0 0 1-.41-2.65 8 8 0 0 1 .38-2.5c.25-.78.62-1.44 1.1-2a5.02 5.02 0 0 1 1.79-1.3 6 6 0 0 1 2.44-.46 5.42 5.42 0 0 1 4 1.58l-.57.77ZM428.7 176.29c.88 0 1.68.15 2.4.44a5.14 5.14 0 0 1 2.97 3.24c.27.77.4 1.63.4 2.58 0 .96-.13 1.82-.4 2.6a5.08 5.08 0 0 1-2.98 3.22c-.71.29-1.51.43-2.4.43-.9 0-1.7-.14-2.42-.44a5.07 5.07 0 0 1-2.98-3.22 7.83 7.83 0 0 1-.4-2.59c0-.95.13-1.81.4-2.59a5.13 5.13 0 0 1 2.99-3.23c.71-.3 1.52-.44 2.41-.44Zm0 10.84c1.2 0 2.09-.4 2.68-1.2.6-.8.89-1.93.89-3.37 0-1.44-.3-2.57-.89-3.38-.6-.8-1.49-1.21-2.69-1.21-.6 0-1.14.1-1.59.3-.45.22-.83.52-1.13.9a4 4 0 0 0-.67 1.46 7.75 7.75 0 0 0-.22 1.93c0 1.44.3 2.56.9 3.37.59.8 1.5 1.2 2.71 1.2ZM437.18 188.63v-12.15h1.28c.3 0 .5.15.56.44l.16 1.25c.45-.55.95-1 1.51-1.35.56-.36 1.21-.53 1.95-.53.81 0 1.47.22 1.98.68.51.46.88 1.07 1.1 1.85a4 4 0 0 1 1.6-1.93c.35-.21.72-.36 1.1-.46a4.9 4.9 0 0 1 2.9.16c.5.2.92.5 1.27.9.35.39.61.87.8 1.44.18.57.27 1.23.27 1.97v7.73h-2.14v-7.73c0-.96-.21-1.68-.63-2.17-.41-.5-1.01-.74-1.8-.74-.35 0-.68.06-1 .19a2.41 2.41 0 0 0-1.4 1.45c-.14.36-.21.78-.21 1.27v7.73h-2.15v-7.73c0-.98-.2-1.7-.59-2.19-.4-.48-.96-.72-1.72-.72-.52 0-1.01.14-1.46.43-.45.28-.86.67-1.24 1.16v9.05h-2.14ZM459.06 185.7c.4.53.82.9 1.29 1.12.46.22.98.33 1.56.33 1.13 0 2-.4 2.61-1.22.61-.8.92-1.96.92-3.45 0-.8-.07-1.47-.21-2.04a3.99 3.99 0 0 0-.61-1.4 2.36 2.36 0 0 0-.97-.8 3.23 3.23 0 0 0-1.31-.25c-.7 0-1.3.16-1.83.48-.52.32-1 .77-1.45 1.36v5.88Zm-.1-7.34a6.3 6.3 0 0 1 1.77-1.52 4.56 4.56 0 0 1 2.3-.58c.71 0 1.35.14 1.91.4a3.9 3.9 0 0 1 1.46 1.2c.4.52.7 1.17.92 1.94a10 10 0 0 1-.04 5.18 6.03 6.03 0 0 1-1.03 2 4.88 4.88 0 0 1-5.78 1.45c-.53-.26-1-.6-1.4-1.06v5.38h-2.15v-16.27h1.28c.3 0 .5.15.56.44l.2 1.44ZM472.62 176.48v12.16h-2.13v-12.16h2.13Zm.46-3.82c0 .21-.04.4-.13.59a1.54 1.54 0 0 1-2 .81 1.64 1.64 0 0 1-.8-.81 1.5 1.5 0 0 1 0-1.18 1.6 1.6 0 0 1 .8-.82 1.5 1.5 0 0 1 1.67.33c.14.14.25.3.33.49.09.19.13.38.13.6ZM476.2 170.96h2.14v17.68h-2.14zM484.05 176.48v12.16h-2.14v-12.16h2.14Zm.45-3.82c0 .21-.04.4-.12.59-.09.18-.2.34-.34.47a1.54 1.54 0 0 1-1.67.34 1.64 1.64 0 0 1-.8-.81 1.5 1.5 0 0 1 0-1.18 1.6 1.6 0 0 1 .8-.82 1.5 1.5 0 0 1 1.67.33c.14.14.25.3.34.49.08.19.12.38.12.6ZM489.57 178.24c.26-.3.54-.56.84-.8a5.54 5.54 0 0 1 2-1.01 5.01 5.01 0 0 1 2.96.19c.5.22.93.53 1.27.93.34.4.6.9.78 1.46.17.57.26 1.2.26 1.89v7.73h-2.15v-7.73c0-.93-.2-1.64-.63-2.15-.42-.5-1.06-.76-1.91-.76a3.6 3.6 0 0 0-1.77.46c-.55.3-1.06.71-1.52 1.23v8.95h-2.15v-12.15h1.29c.3 0 .49.15.56.44l.17 1.32ZM505.18 182.7c.43 0 .81-.06 1.14-.19.33-.11.6-.28.83-.5.22-.22.39-.47.5-.77.11-.3.17-.63.17-1 0-.74-.23-1.33-.68-1.77-.45-.44-1.1-.66-1.96-.66-.86 0-1.52.22-1.97.66a2.36 2.36 0 0 0-.68 1.78c0 .36.06.69.17.99a2.13 2.13 0 0 0 1.34 1.27c.33.13.7.19 1.14.19Zm3.85 6.6c0-.3-.08-.54-.25-.73-.17-.18-.4-.32-.68-.43-.28-.1-.61-.17-.99-.22-.37-.04-.77-.08-1.2-.1l-1.27-.07a15 15 0 0 1-1.25-.12c-.45.2-.81.47-1.1.78a1.6 1.6 0 0 0-.21 1.88c.14.23.35.44.64.6.29.18.65.31 1.09.42.43.1.95.14 1.54.14.57 0 1.09-.05 1.55-.15.45-.1.84-.25 1.15-.45.32-.19.56-.41.73-.68.17-.26.25-.55.25-.88Zm2.17-12.34v.8c0 .25-.16.42-.5.5l-1.38.18c.27.52.4 1.1.4 1.75a3.74 3.74 0 0 1-2.72 3.65 6.15 6.15 0 0 1-3.43.07c-.25.16-.45.33-.59.5a.9.9 0 0 0-.2.55c0 .3.12.5.35.66.24.14.55.25.93.31.39.07.83.1 1.32.13.49.01 1 .04 1.51.07.52.04 1.02.1 1.51.19.5.09.93.23 1.32.43.38.2.69.48.93.83.23.35.35.8.35 1.37 0 .52-.13 1.02-.39 1.5a4.1 4.1 0 0 1-1.12 1.31c-.49.38-1.09.69-1.8.91-.7.23-1.5.34-2.39.34-.89 0-1.66-.08-2.33-.26a5.46 5.46 0 0 1-1.65-.7c-.44-.3-.77-.65-1-1.03-.21-.4-.32-.8-.32-1.22 0-.6.18-1.1.56-1.53.38-.41.9-.74 1.55-1a2.22 2.22 0 0 1-.86-.63 1.7 1.7 0 0 1-.32-1.09c0-.18.03-.36.1-.55a3.01 3.01 0 0 1 1.45-1.54 3.74 3.74 0 0 1-1.4-1.34c-.34-.55-.5-1.2-.5-1.93a3.57 3.57 0 0 1 1.3-2.85c.4-.34.88-.6 1.45-.79a5.95 5.95 0 0 1 1.85-.28c.53 0 1.02.06 1.48.18.45.12.87.28 1.24.5h3.3ZM516 171.44v6.86a22.73 22.73 0 0 1-.1 2.1 36.07 36.07 0 0 1-.2 2.23h-1.45a72.46 72.46 0 0 1-.21-2.23 46.46 46.46 0 0 1-.09-2.1v-6.86H516Zm-2.56 15.88a1.52 1.52 0 0 1 .43-1.07 1.45 1.45 0 0 1 1.07-.44c.2 0 .4.03.58.11a1.56 1.56 0 0 1 .8.8c.08.2.12.39.12.6a1.45 1.45 0 0 1-.45 1.06 1.47 1.47 0 0 1-1.05.44 1.51 1.51 0 0 1-1.07-.44 1.47 1.47 0 0 1-.43-1.06Z"/>
  </g>
  <g fill="#f6eee1" fill-rule="nonzero">
    <path d="M183.5 186.79c.67 0 1.24-.08 1.72-.23.48-.15.88-.37 1.19-.64.3-.28.53-.6.67-.99.15-.38.22-.8.22-1.25 0-.89-.32-1.6-.95-2.1-.63-.52-1.58-.78-2.84-.78h-3.72v5.99h3.72Zm-3.71-13.51v5.86h3.07c.66 0 1.23-.07 1.71-.21.48-.15.88-.35 1.2-.6.32-.26.55-.57.7-.93.15-.37.23-.77.23-1.2 0-1.01-.3-1.75-.91-2.22-.61-.47-1.55-.7-2.83-.7h-3.17Zm3.17-1.84c1.05 0 1.96.1 2.73.31.76.2 1.39.5 1.88.89.5.38.85.85 1.09 1.4a4.84 4.84 0 0 1 .15 3.1c-.14.4-.33.76-.6 1.1-.26.33-.6.63-1 .9s-.88.48-1.42.65a5.2 5.2 0 0 1 2.85 1.35c.63.66.95 1.53.95 2.6 0 .73-.13 1.4-.4 2-.27.6-.66 1.1-1.18 1.54-.51.43-1.15.76-1.9 1s-1.6.35-2.57.35h-6.07v-17.2h5.49ZM200.44 181.23c0-.5-.07-.95-.21-1.36a3.06 3.06 0 0 0-.61-1.07c-.27-.3-.6-.53-.98-.7a3.3 3.3 0 0 0-1.3-.24c-1.03 0-1.84.3-2.44.9-.6.59-.96 1.42-1.1 2.47h6.64Zm1.73 5.7c-.27.32-.58.6-.95.83a5.9 5.9 0 0 1-1.18.59 7.5 7.5 0 0 1-4.96.03 5.1 5.1 0 0 1-1.83-1.25 5.73 5.73 0 0 1-1.21-2.03 8.27 8.27 0 0 1-.04-5.16 5.17 5.17 0 0 1 2.91-3.19c.7-.3 1.5-.46 2.37-.46.73 0 1.4.12 2.03.36a4.57 4.57 0 0 1 2.67 2.76c.25.68.38 1.45.38 2.31 0 .34-.04.56-.1.68-.08.1-.22.16-.42.16h-8.12c.02.77.13 1.44.32 2 .19.57.45 1.05.78 1.43.34.38.74.66 1.2.85.47.19.99.28 1.56.28.54 0 1-.06 1.39-.18a6.6 6.6 0 0 0 1.7-.8.93.93 0 0 1 .49-.2c.18 0 .31.07.4.21l.6.78ZM208.62 188.83c-.96 0-1.7-.27-2.21-.8-.52-.54-.77-1.31-.77-2.32v-7.44h-1.47a.48.48 0 0 1-.32-.12c-.09-.07-.13-.2-.13-.35v-.85l1.99-.25.49-3.76a.47.47 0 0 1 .5-.4h1.07v4.18h5.73l.49-3.78a.47.47 0 0 1 .5-.4h1.07v4.18h3.52v1.55h-3.52v7.3c0 .5.13.88.38 1.13.25.25.57.38.95.38.23 0 .42-.04.58-.1a2.5 2.5 0 0 0 .74-.4.4.4 0 0 1 .22-.08c.12 0 .22.07.3.2l.63 1.02a4.52 4.52 0 0 1-2.95 1.1c-.95 0-1.69-.26-2.2-.8-.53-.53-.79-1.3-.79-2.31v-7.44h-5.65v7.3c0 .5.13.88.37 1.13.25.25.57.38.96.38.23 0 .42-.04.59-.1a2.5 2.5 0 0 0 .73-.4.4.4 0 0 1 .22-.08c.11 0 .21.07.3.2l.62 1.02a4.52 4.52 0 0 1-2.94 1.1ZM229.36 181.23c0-.5-.07-.95-.21-1.36a3.06 3.06 0 0 0-.61-1.07c-.27-.3-.6-.53-.98-.7a3.3 3.3 0 0 0-1.3-.24c-1.03 0-1.84.3-2.44.9-.6.59-.96 1.42-1.1 2.47h6.64Zm1.73 5.7c-.27.32-.58.6-.95.83a5.9 5.9 0 0 1-1.18.59 7.5 7.5 0 0 1-4.96.03 5.1 5.1 0 0 1-1.83-1.25 5.73 5.73 0 0 1-1.21-2.03 8.27 8.27 0 0 1-.04-5.16 5.17 5.17 0 0 1 2.91-3.19c.7-.3 1.5-.46 2.37-.46.73 0 1.4.12 2.03.36a4.57 4.57 0 0 1 2.67 2.76c.25.68.38 1.45.38 2.31 0 .34-.04.56-.1.68-.08.1-.22.16-.42.16h-8.12c.02.77.13 1.44.32 2 .19.57.45 1.05.78 1.43.34.38.74.66 1.2.85.47.19.99.28 1.56.28.54 0 1-.06 1.39-.18a6.6 6.6 0 0 0 1.7-.8.93.93 0 0 1 .49-.2c.18 0 .31.07.4.21l.6.78ZM235.92 178.91c.39-.83.86-1.48 1.42-1.94a3.1 3.1 0 0 1 2.05-.7c.26 0 .5.02.74.08.24.05.45.14.63.26l-.16 1.6c-.04.2-.16.3-.36.3-.1 0-.27-.03-.49-.07a3.39 3.39 0 0 0-1.76.1c-.3.1-.56.27-.8.49-.24.22-.45.5-.64.81a7 7 0 0 0-.5 1.11v7.69h-2.15v-12.16h1.22c.23 0 .4.04.48.13.09.09.15.24.18.46l.14 1.84ZM255.35 178.48a.47.47 0 0 1-.44.27.84.84 0 0 1-.41-.13 5.24 5.24 0 0 0-1.34-.6 3.75 3.75 0 0 0-2.06 0c-.28.1-.53.22-.73.38-.2.16-.36.34-.47.56-.11.2-.16.44-.16.69 0 .3.09.57.27.78.18.2.41.38.71.54.3.15.63.28 1 .4l1.17.37c.4.13.78.28 1.15.44.38.16.72.36 1.01.6.3.24.54.53.72.88.18.35.27.77.27 1.25 0 .56-.1 1.08-.3 1.56-.2.47-.5.89-.9 1.23-.38.35-.86.63-1.43.83-.57.2-1.23.3-1.97.3a6.14 6.14 0 0 1-4.06-1.48l.5-.81c.07-.1.15-.19.24-.25.08-.05.2-.08.33-.08.15 0 .3.06.46.17.16.11.35.24.58.37a3.83 3.83 0 0 0 2.06.54c.41 0 .78-.05 1.09-.16.31-.1.57-.25.78-.44.2-.18.36-.4.46-.63.1-.25.15-.5.15-.77 0-.34-.09-.62-.27-.84-.18-.22-.42-.4-.71-.56-.3-.16-.64-.3-1.02-.4l-1.16-.38c-.4-.12-.78-.27-1.16-.43a4.1 4.1 0 0 1-1.02-.62 2.8 2.8 0 0 1-.71-.92c-.18-.36-.27-.8-.27-1.32a3.23 3.23 0 0 1 1.13-2.47c.36-.32.82-.58 1.35-.78.54-.19 1.15-.28 1.84-.28.8 0 1.52.12 2.15.38.64.25 1.19.6 1.65 1.03l-.48.78ZM262.4 188.83c-.96 0-1.7-.27-2.22-.8-.51-.54-.77-1.31-.77-2.32v-7.44h-1.47a.48.48 0 0 1-.32-.12c-.09-.07-.13-.2-.13-.35v-.85l1.99-.25.5-3.76a.47.47 0 0 1 .5-.4h1.06v4.18h3.52v1.55h-3.52v7.3c0 .5.13.88.38 1.13.24.25.56.38.96.38.22 0 .41-.04.58-.1a2.5 2.5 0 0 0 .73-.4.4.4 0 0 1 .22-.08c.11 0 .21.07.3.2l.63 1.02a4.52 4.52 0 0 1-2.94 1.1ZM277.76 176.48l-6.78 15.74c-.08.16-.17.3-.27.39-.11.1-.28.14-.5.14h-1.59l2.22-4.82-5.01-11.45h1.85c.18 0 .33.05.43.14.11.09.19.2.23.3l3.25 7.66c.13.33.23.69.32 1.05.11-.37.23-.73.36-1.06l3.16-7.65a.68.68 0 0 1 .63-.44h1.7ZM279.7 170.96h2.15v17.68h-2.14zM287.56 176.48v12.16h-2.14v-12.16h2.14Zm.46-3.82c0 .21-.05.4-.13.59-.08.18-.2.34-.34.47a1.54 1.54 0 0 1-1.66.34 1.64 1.64 0 0 1-.8-.81 1.5 1.5 0 0 1 0-1.18 1.6 1.6 0 0 1 .8-.82 1.5 1.5 0 0 1 1.67.33c.13.14.25.3.33.49.08.19.13.38.13.6ZM293.08 178.24c.26-.3.54-.56.84-.8a5.54 5.54 0 0 1 2-1.01 5.01 5.01 0 0 1 2.96.19c.51.22.93.53 1.27.93.34.4.6.9.78 1.46.17.57.26 1.2.26 1.89v7.73h-2.15v-7.73c0-.93-.2-1.64-.63-2.15-.42-.5-1.05-.76-1.91-.76a3.6 3.6 0 0 0-1.77.46c-.55.3-1.05.71-1.52 1.23v8.95h-2.15v-12.15h1.29c.3 0 .49.15.56.44l.17 1.32ZM308.7 182.7c.42 0 .8-.06 1.13-.19.33-.11.6-.28.83-.5.22-.22.4-.47.5-.77.12-.3.17-.63.17-1 0-.74-.22-1.33-.68-1.77-.45-.44-1.1-.66-1.96-.66-.86 0-1.52.22-1.97.66a2.36 2.36 0 0 0-.68 1.78c0 .36.06.69.17.99a2.13 2.13 0 0 0 1.34 1.27c.33.13.71.19 1.14.19Zm3.84 6.6c0-.3-.08-.54-.25-.73-.17-.18-.4-.32-.68-.43-.28-.1-.61-.17-.99-.22-.37-.04-.77-.08-1.19-.1l-1.28-.07a15 15 0 0 1-1.25-.12c-.44.2-.81.47-1.1.78a1.6 1.6 0 0 0-.21 1.88c.14.23.35.44.64.6.29.18.65.31 1.09.42.43.1.95.14 1.54.14.58 0 1.1-.05 1.55-.15.45-.1.84-.25 1.16-.45.31-.19.55-.41.72-.68.17-.26.25-.55.25-.88Zm2.18-12.34v.8c0 .25-.17.42-.5.5l-1.39.18c.27.52.41 1.1.41 1.75a3.74 3.74 0 0 1-2.72 3.65 6.15 6.15 0 0 1-3.43.07c-.26.16-.46.33-.6.5a.9.9 0 0 0-.2.55c0 .3.12.5.36.66.23.14.54.25.93.31.38.07.82.1 1.31.13.5.01 1 .04 1.51.07.52.04 1.02.1 1.51.19.5.09.93.23 1.32.43.38.2.7.48.93.83.23.35.35.8.35 1.37 0 .52-.13 1.02-.39 1.5a4.1 4.1 0 0 1-1.12 1.31c-.49.38-1.09.69-1.8.91-.7.23-1.5.34-2.39.34-.89 0-1.66-.08-2.33-.26a5.46 5.46 0 0 1-1.65-.7c-.44-.3-.77-.65-1-1.03-.21-.4-.32-.8-.32-1.22 0-.6.19-1.1.56-1.53.38-.41.9-.74 1.55-1a2.22 2.22 0 0 1-.86-.63 1.7 1.7 0 0 1-.32-1.09c0-.18.04-.36.1-.55a3.01 3.01 0 0 1 1.45-1.54 3.74 3.74 0 0 1-1.4-1.34c-.34-.55-.5-1.2-.5-1.93a3.57 3.57 0 0 1 1.3-2.85c.4-.34.88-.6 1.45-.79a5.95 5.95 0 0 1 1.85-.28c.53 0 1.02.06 1.48.18.45.12.87.28 1.25.5h3.3ZM326.81 188.83c-.96 0-1.7-.27-2.21-.8-.52-.54-.78-1.31-.78-2.32v-7.44h-1.46a.48.48 0 0 1-.32-.12c-.1-.07-.14-.2-.14-.35v-.85l2-.25.49-3.76a.47.47 0 0 1 .5-.4h1.07v4.18h3.52v1.55h-3.52v7.3c0 .5.12.88.37 1.13.25.25.57.38.96.38.23 0 .42-.04.58-.1a2.5 2.5 0 0 0 .74-.4.4.4 0 0 1 .22-.08c.11 0 .21.07.3.2l.62 1.02a4.52 4.52 0 0 1-2.94 1.1ZM333.83 178.1c.52-.55 1.1-1 1.73-1.32.63-.33 1.36-.5 2.18-.5.67 0 1.25.12 1.76.34.51.22.93.53 1.27.93.34.4.6.9.78 1.46.17.57.26 1.2.26 1.89v7.73h-2.15v-7.73c0-.93-.2-1.64-.63-2.15-.42-.5-1.05-.76-1.91-.76a3.6 3.6 0 0 0-1.77.46c-.55.3-1.05.71-1.52 1.23v8.95h-2.15v-17.67h2.15v7.14ZM347.1 178.91c.39-.83.86-1.48 1.42-1.94a3.1 3.1 0 0 1 2.05-.7c.26 0 .5.02.74.08.24.05.45.14.63.26l-.16 1.6c-.04.2-.16.3-.36.3-.1 0-.27-.03-.49-.07a3.39 3.39 0 0 0-1.76.1c-.3.1-.56.27-.8.49-.24.22-.45.5-.64.81a7 7 0 0 0-.5 1.11v7.69h-2.15v-12.16h1.22c.23 0 .4.04.48.13.09.09.15.24.18.46l.14 1.84ZM358.44 176.29c.9 0 1.7.15 2.4.44a5.14 5.14 0 0 1 2.99 3.24c.26.77.4 1.63.4 2.58 0 .96-.14 1.82-.4 2.6a5.08 5.08 0 0 1-2.98 3.22c-.72.29-1.52.43-2.4.43-.9 0-1.7-.14-2.42-.44a5.07 5.07 0 0 1-3-3.22 7.83 7.83 0 0 1-.4-2.59c0-.95.14-1.81.4-2.59.28-.77.66-1.43 1.17-1.97.5-.54 1.11-.96 1.83-1.26.71-.3 1.52-.44 2.41-.44Zm0 10.84c1.2 0 2.1-.4 2.7-1.2.58-.8.88-1.93.88-3.37 0-1.44-.3-2.57-.89-3.38-.59-.8-1.49-1.21-2.69-1.21-.6 0-1.13.1-1.59.3-.45.22-.82.52-1.12.9a4 4 0 0 0-.68 1.46 7.75 7.75 0 0 0-.22 1.93c0 1.44.3 2.56.9 3.37.6.8 1.5 1.2 2.71 1.2ZM376.92 176.48v12.16h-1.27c-.3 0-.5-.15-.57-.45l-.17-1.3a6.69 6.69 0 0 1-1.78 1.4c-.65.36-1.4.54-2.25.54-.67 0-1.25-.11-1.76-.33-.51-.22-.94-.53-1.28-.93-.34-.4-.6-.89-.77-1.45a6.48 6.48 0 0 1-.26-1.89v-7.75h2.13v7.75c0 .92.21 1.63.63 2.14.42.5 1.07.75 1.93.75.63 0 1.22-.15 1.77-.45.55-.3 1.05-.71 1.52-1.24v-8.95h2.13ZM384.54 182.7c.44 0 .82-.06 1.14-.19.33-.11.6-.28.83-.5.23-.22.4-.47.5-.77.12-.3.17-.63.17-1 0-.74-.22-1.33-.67-1.77-.46-.44-1.11-.66-1.97-.66-.86 0-1.52.22-1.97.66a2.36 2.36 0 0 0-.68 1.78c0 .36.06.69.18.99a2.13 2.13 0 0 0 1.33 1.27c.33.13.71.19 1.14.19Zm3.86 6.6c0-.3-.09-.54-.26-.73-.16-.18-.39-.32-.67-.43-.29-.1-.62-.17-1-.22-.37-.04-.77-.08-1.19-.1l-1.28-.07a15 15 0 0 1-1.24-.12c-.45.2-.82.47-1.1.78a1.6 1.6 0 0 0-.22 1.88c.14.23.36.44.64.6.3.18.65.31 1.09.42.44.1.95.14 1.54.14.58 0 1.1-.05 1.55-.15.46-.1.84-.25 1.16-.45.31-.19.56-.41.72-.68.17-.26.26-.55.26-.88Zm2.17-12.34v.8c0 .25-.17.42-.5.5l-1.39.18c.28.52.41 1.1.41 1.75a3.74 3.74 0 0 1-2.72 3.65 6.15 6.15 0 0 1-3.43.07c-.26.16-.46.33-.6.5a.9.9 0 0 0-.2.55c0 .3.12.5.36.66.23.14.54.25.93.31.38.07.82.1 1.31.13.5.01 1 .04 1.51.07.52.04 1.02.1 1.52.19.49.09.93.23 1.31.43.38.2.7.48.93.83.24.35.35.8.35 1.37 0 .52-.13 1.02-.39 1.5a4.1 4.1 0 0 1-1.12 1.31c-.49.38-1.08.69-1.8.91-.7.23-1.5.34-2.39.34-.88 0-1.66-.08-2.32-.26a5.46 5.46 0 0 1-1.66-.7c-.44-.3-.77-.65-.99-1.03-.22-.4-.33-.8-.33-1.22 0-.6.19-1.1.56-1.53.38-.41.9-.74 1.55-1a2.22 2.22 0 0 1-.86-.63 1.7 1.7 0 0 1-.31-1.09c0-.18.03-.36.1-.55.06-.18.15-.37.29-.56a3.01 3.01 0 0 1 1.15-.98 3.74 3.74 0 0 1-1.4-1.34c-.34-.55-.5-1.2-.5-1.93a3.57 3.57 0 0 1 1.3-2.85c.4-.34.89-.6 1.45-.79a5.95 5.95 0 0 1 1.85-.28c.53 0 1.02.06 1.48.18.46.12.87.28 1.25.5h3.3ZM394.94 178.1c.52-.55 1.1-1 1.72-1.32.64-.33 1.36-.5 2.19-.5.66 0 1.25.12 1.76.34.5.22.93.53 1.27.93.34.4.6.9.77 1.46.18.57.27 1.2.27 1.89v7.73h-2.15v-7.73c0-.93-.21-1.64-.63-2.15-.42-.5-1.06-.76-1.92-.76a3.6 3.6 0 0 0-1.77.46c-.54.3-1.05.71-1.51 1.23v8.95h-2.15v-17.67h2.15v7.14ZM420.78 178.64a.95.95 0 0 1-.19.2.43.43 0 0 1-.26.07.71.71 0 0 1-.4-.15c-.14-.1-.32-.2-.53-.32a3.7 3.7 0 0 0-1.91-.48c-.6 0-1.13.1-1.59.31-.46.21-.84.52-1.15.92-.3.4-.54.88-.7 1.45a7.2 7.2 0 0 0-.23 1.91c0 .74.09 1.4.26 1.96.16.58.4 1.06.71 1.44.3.4.68.69 1.12.9.43.2.92.3 1.47.3a3.76 3.76 0 0 0 2.11-.6l.56-.42c.14-.12.29-.18.43-.18.18 0 .32.06.41.2l.6.78c-.26.33-.56.6-.9.84a5.54 5.54 0 0 1-2.3.92c-.43.08-.86.11-1.3.11-.76 0-1.46-.14-2.12-.42a4.83 4.83 0 0 1-1.7-1.22 5.7 5.7 0 0 1-1.12-1.96 8 8 0 0 1-.41-2.65 8 8 0 0 1 .38-2.5c.25-.78.62-1.44 1.1-2a5.02 5.02 0 0 1 1.79-1.3 6 6 0 0 1 2.44-.46 5.42 5.42 0 0 1 4 1.58l-.57.77ZM428.7 176.29c.88 0 1.68.15 2.4.44a5.14 5.14 0 0 1 2.97 3.24c.27.77.4 1.63.4 2.58 0 .96-.13 1.82-.4 2.6a5.08 5.08 0 0 1-2.98 3.22c-.71.29-1.51.43-2.4.43-.9 0-1.7-.14-2.42-.44a5.07 5.07 0 0 1-2.98-3.22 7.83 7.83 0 0 1-.4-2.59c0-.95.13-1.81.4-2.59a5.13 5.13 0 0 1 2.99-3.23c.71-.3 1.52-.44 2.41-.44Zm0 10.84c1.2 0 2.09-.4 2.68-1.2.6-.8.89-1.93.89-3.37 0-1.44-.3-2.57-.89-3.38-.6-.8-1.49-1.21-2.69-1.21-.6 0-1.14.1-1.59.3-.45.22-.83.52-1.13.9a4 4 0 0 0-.67 1.46 7.75 7.75 0 0 0-.22 1.93c0 1.44.3 2.56.9 3.37.59.8 1.5 1.2 2.71 1.2ZM437.18 188.63v-12.15h1.28c.3 0 .5.15.56.44l.16 1.25c.45-.55.95-1 1.51-1.35.56-.36 1.21-.53 1.95-.53.81 0 1.47.22 1.98.68.51.46.88 1.07 1.1 1.85a4 4 0 0 1 1.6-1.93c.35-.21.72-.36 1.1-.46a4.9 4.9 0 0 1 2.9.16c.5.2.92.5 1.27.9.35.39.61.87.8 1.44.18.57.27 1.23.27 1.97v7.73h-2.14v-7.73c0-.96-.21-1.68-.63-2.17-.41-.5-1.01-.74-1.8-.74-.35 0-.68.06-1 .19a2.41 2.41 0 0 0-1.4 1.45c-.14.36-.21.78-.21 1.27v7.73h-2.15v-7.73c0-.98-.2-1.7-.59-2.19-.4-.48-.96-.72-1.72-.72-.52 0-1.01.14-1.46.43-.45.28-.86.67-1.24 1.16v9.05h-2.14ZM459.06 185.7c.4.53.82.9 1.29 1.12.46.22.98.33 1.56.33 1.13 0 2-.4 2.61-1.22.61-.8.92-1.96.92-3.45 0-.8-.07-1.47-.21-2.04a3.99 3.99 0 0 0-.61-1.4 2.36 2.36 0 0 0-.97-.8 3.23 3.23 0 0 0-1.31-.25c-.7 0-1.3.16-1.83.48-.52.32-1 .77-1.45 1.36v5.88Zm-.1-7.34a6.3 6.3 0 0 1 1.77-1.52 4.56 4.56 0 0 1 2.3-.58c.71 0 1.35.14 1.91.4a3.9 3.9 0 0 1 1.46 1.2c.4.52.7 1.17.92 1.94a10 10 0 0 1-.04 5.18 6.03 6.03 0 0 1-1.03 2 4.88 4.88 0 0 1-5.78 1.45c-.53-.26-1-.6-1.4-1.06v5.38h-2.15v-16.27h1.28c.3 0 .5.15.56.44l.2 1.44ZM472.62 176.48v12.16h-2.13v-12.16h2.13Zm.46-3.82c0 .21-.04.4-.13.59a1.54 1.54 0 0 1-2 .81 1.64 1.64 0 0 1-.8-.81 1.5 1.5 0 0 1 0-1.18 1.6 1.6 0 0 1 .8-.82 1.5 1.5 0 0 1 1.67.33c.14.14.25.3.33.49.09.19.13.38.13.6ZM476.2 170.96h2.14v17.68h-2.14zM484.05 176.48v12.16h-2.14v-12.16h2.14Zm.45-3.82c0 .21-.04.4-.12.59-.09.18-.2.34-.34.47a1.54 1.54 0 0 1-1.67.34 1.64 1.64 0 0 1-.8-.81 1.5 1.5 0 0 1 0-1.18 1.6 1.6 0 0 1 .8-.82 1.5 1.5 0 0 1 1.67.33c.14.14.25.3.34.49.08.19.12.38.12.6ZM489.57 178.24c.26-.3.54-.56.84-.8a5.54 5.54 0 0 1 2-1.01 5.01 5.01 0 0 1 2.96.19c.5.22.93.53 1.27.93.34.4.6.9.78 1.46.17.57.26 1.2.26 1.89v7.73h-2.15v-7.73c0-.93-.2-1.64-.63-2.15-.42-.5-1.06-.76-1.91-.76a3.6 3.6 0 0 0-1.77.46c-.55.3-1.06.71-1.52 1.23v8.95h-2.15v-12.15h1.29c.3 0 .49.15.56.44l.17 1.32ZM505.18 182.7c.43 0 .81-.06 1.14-.19.33-.11.6-.28.83-.5.22-.22.39-.47.5-.77.11-.3.17-.63.17-1 0-.74-.23-1.33-.68-1.77-.45-.44-1.1-.66-1.96-.66-.86 0-1.52.22-1.97.66a2.36 2.36 0 0 0-.68 1.78c0 .36.06.69.17.99a2.13 2.13 0 0 0 1.34 1.27c.33.13.7.19 1.14.19Zm3.85 6.6c0-.3-.08-.54-.25-.73-.17-.18-.4-.32-.68-.43-.28-.1-.61-.17-.99-.22-.37-.04-.77-.08-1.2-.1l-1.27-.07a15 15 0 0 1-1.25-.12c-.45.2-.81.47-1.1.78a1.6 1.6 0 0 0-.21 1.88c.14.23.35.44.64.6.29.18.65.31 1.09.42.43.1.95.14 1.54.14.57 0 1.09-.05 1.55-.15.45-.1.84-.25 1.15-.45.32-.19.56-.41.73-.68.17-.26.25-.55.25-.88Zm2.17-12.34v.8c0 .25-.16.42-.5.5l-1.38.18c.27.52.4 1.1.4 1.75a3.74 3.74 0 0 1-2.72 3.65 6.15 6.15 0 0 1-3.43.07c-.25.16-.45.33-.59.5a.9.9 0 0 0-.2.55c0 .3.12.5.35.66.24.14.55.25.93.31.39.07.83.1 1.32.13.49.01 1 .04 1.51.07.52.04 1.02.1 1.51.19.5.09.93.23 1.32.43.38.2.69.48.93.83.23.35.35.8.35 1.37 0 .52-.13 1.02-.39 1.5a4.1 4.1 0 0 1-1.12 1.31c-.49.38-1.09.69-1.8.91-.7.23-1.5.34-2.39.34-.89 0-1.66-.08-2.33-.26a5.46 5.46 0 0 1-1.65-.7c-.44-.3-.77-.65-1-1.03-.21-.4-.32-.8-.32-1.22 0-.6.18-1.1.56-1.53.38-.41.9-.74 1.55-1a2.22 2.22 0 0 1-.86-.63 1.7 1.7 0 0 1-.32-1.09c0-.18.03-.36.1-.55a3.01 3.01 0 0 1 1.45-1.54 3.74 3.74 0 0 1-1.4-1.34c-.34-.55-.5-1.2-.5-1.93a3.57 3.57 0 0 1 1.3-2.85c.4-.34.88-.6 1.45-.79a5.95 5.95 0 0 1 1.85-.28c.53 0 1.02.06 1.48.18.45.12.87.28 1.24.5h3.3ZM516 171.44v6.86a22.73 22.73 0 0 1-.1 2.1 36.07 36.07 0 0 1-.2 2.23h-1.45a72.46 72.46 0 0 1-.21-2.23 46.46 46.46 0 0 1-.09-2.1v-6.86H516Zm-2.56 15.88a1.52 1.52 0 0 1 .43-1.07 1.45 1.45 0 0 1 1.07-.44c.2 0 .4.03.58.11a1.56 1.56 0 0 1 .8.8c.08.2.12.39.12.6a1.45 1.45 0 0 1-.45 1.06 1.47 1.47 0 0 1-1.05.44 1.51 1.51 0 0 1-1.07-.44 1.47 1.47 0 0 1-.43-1.06Z"/>
  </g>
  <g fill="#f6eee1" fill-rule="nonzero">
    <path d="m145.4 145.78-22.28.92.5-3.94c-1.5.19-3 .3-4.5.32l-4.5.03c-1.37 0-2.87-.16-4.5-.49a17.3 17.3 0 0 1-4.58-1.58 10.76 10.76 0 0 1-3.51-2.85 6.65 6.65 0 0 1-1.41-4.29c0-1.87.45-3.47 1.34-4.78.89-1.31 2.02-2.37 3.4-3.16a16.2 16.2 0 0 1 4.61-1.76c1.69-.38 3.33-.57 4.92-.57 1.97 0 3.9.1 5.77.29 1.87.18 3.77.35 5.7.49a24.33 24.33 0 0 0-.04-7.53c-.21-1.21-.59-2.3-1.13-3.26a6.01 6.01 0 0 0-2.25-2.29 7.22 7.22 0 0 0-3.69-.84c-1.4 0-2.68.22-3.83.66a7.47 7.47 0 0 0-3.06 2.29c.66.52 1.1 1.09 1.34 1.72.23.64.35 1.35.35 2.15v.42c-.7 3.28-2.77 4.92-6.19 4.92a4.86 4.86 0 0 1-3.8-1.65 5.66 5.66 0 0 1-1.47-3.9c0-2.07.59-3.85 1.76-5.35a14.76 14.76 0 0 1 4.32-3.72 20.5 20.5 0 0 1 5.56-2.18c1.99-.47 3.83-.7 5.52-.7 5.39 0 9.6 1.23 12.62 3.72 3.02 2.48 4.53 6.54 4.53 12.16a46.44 46.44 0 0 1-.14 3.66l-1.69 16.17c1.79.8 3.52 1.62 5.2 2.46 1.7.85 3.4 1.67 5.14 2.46Zm-19.82-16.66c-1.22-.14-2.44-.3-3.65-.46a27.4 27.4 0 0 0-3.66-.24c-.8 0-1.58.08-2.36.24-.77.17-1.47.44-2.1.81-.64.38-1.14.88-1.52 1.51a4.55 4.55 0 0 0-.07 4.22c.33.54.76 1 1.3 1.37a6.56 6.56 0 0 0 3.62 1.13c1.22 0 2.45-.07 3.7-.21l3.62-.43 1.12-7.94Z"/>
    <path d="M178.8 133.2c0 2.34-.53 4.26-1.6 5.76a11.67 11.67 0 0 1-4.09 3.55 18.41 18.41 0 0 1-5.48 1.83c-2.02.35-3.96.53-5.84.53a30.55 30.55 0 0 1-11.07-2.18 15.3 15.3 0 0 1-3.2-1.69l-5.7 6.68 2.18-21.51a23.53 23.53 0 0 0 7.32 9c1.59 1.17 3.3 2.1 5.13 2.77a16.21 16.21 0 0 0 7.49.92 8.02 8.02 0 0 0 1.97-.46 4.3 4.3 0 0 0 1.58-.98c.42-.43.63-.99.63-1.7 0-.79-.42-1.53-1.26-2.2a13.01 13.01 0 0 0-2.96-1.76c-1.12-.5-2.25-.92-3.37-1.27l-2.53-.8a46.16 46.16 0 0 1-5.24-1.94c-1.9-.82-3.66-1.8-5.28-2.95a16.28 16.28 0 0 1-4.04-4.08 9.38 9.38 0 0 1-1.62-5.45c0-1.97.48-3.73 1.45-5.28.96-1.54 2.19-2.84 3.69-3.9a16.88 16.88 0 0 1 5.02-2.39c1.86-.54 3.67-.8 5.45-.8 2.81 0 5.47.5 7.98 1.5 2.51 1.01 4.8 2.45 6.86 4.33l4.36-8.44-.92 22.22a32.63 32.63 0 0 0-7.38-9.21 20.89 20.89 0 0 0-5-3.17c-1.77-.8-3.62-1.19-5.55-1.19-.56 0-1.2.06-1.93.18-.73.11-1.4.31-2.04.6-.63.27-1.17.66-1.62 1.15-.44.5-.66 1.12-.66 1.87 0 .89.34 1.66 1.02 2.32.68.65 1.5 1.23 2.46 1.72.96.5 1.94.91 2.95 1.27 1 .35 1.84.62 2.5.8 1.68.57 3.58 1.22 5.7 1.97 2.1.75 4.1 1.67 5.97 2.74a17.07 17.07 0 0 1 4.74 3.98 8.63 8.63 0 0 1 1.94 5.66ZM211.08 99.66l-.63 6.6c-2.3-.18-4.57-.36-6.82-.52a234.5 234.5 0 0 1-6.82-.6c-.38 4.46-.78 8.89-1.2 13.3a17659.29 17659.29 0 0 0-1.4 14.69c0 .65.07 1.32.2 2 .15.68.38 1.3.71 1.83.33.54.76.98 1.3 1.34.54.35 1.2.52 2 .52 1.55 0 2.91-.36 4.08-1.09a10.12 10.12 0 0 0 2.96-2.77c.8-1.13 1.43-2.38 1.9-3.77.46-1.38.77-2.75.9-4.1.57 2.2.85 4.37.85 6.53 0 2.06-.33 3.93-.98 5.59a12.14 12.14 0 0 1-6.96 7.07c-1.64.65-3.45.98-5.42.98-2.06 0-3.86-.35-5.41-1.05a10.38 10.38 0 0 1-3.83-2.92c-1.01-1.24-1.76-2.7-2.25-4.4-.5-1.68-.74-3.49-.74-5.41v-1.06a4510.96 4510.96 0 0 0 1.16-14.52c.35-4.43.67-8.91.95-13.46a191.22 191.22 0 0 1-7.52-.7l.28-5.56c.98-.05 2.01-.2 3.09-.49 1.08-.28 2.12-.66 3.13-1.13 1-.46 1.94-1.03 2.81-1.68a9.3 9.3 0 0 0 2.15-2.25 30.17 30.17 0 0 0 2.64-5.84c.34-1.08.64-2.14.87-3.2.24-1.05.4-2.07.5-3.06l5.76.14-1.83 17.58 13.57 1.4Z"/>
    <path d="M254.32 110.77c0 1.92-.58 3.5-1.75 4.74a6.17 6.17 0 0 1-4.71 1.87 5.99 5.99 0 0 1-3.38-.81 8.87 8.87 0 0 1-2-1.83 21.25 21.25 0 0 0-1.62-1.83 3.1 3.1 0 0 0-2.29-.8c-1.73 0-3.11.54-4.14 1.65-1.04 1.1-1.81 2.4-2.32 3.9-.05.1-.09.54-.11 1.33l-.1 3.03a650.43 650.43 0 0 0-.29 8.15c-.04 1.32-.1 2.48-.14 3.48-.04 1.01-.07 1.68-.07 2l17.09 6.2-40.64 4.14a1279.17 1279.17 0 0 1 14.62-9.14l-2.6-24.54-15.68-4.21 28.34-6.2-.14 6.48c1.97-1.36 4-2.52 6.08-3.48s4.4-1.44 6.92-1.44a12.57 12.57 0 0 1 5.14 1.12c.8.38 1.5.88 2.1 1.51.62.63 1.06 1.4 1.34 2.29.24.84.35 1.64.35 2.39Z"/>
    <path d="M300.8 128.06c0 3.24-.8 5.97-2.43 8.2a18.68 18.68 0 0 1-6.18 5.41 29.82 29.82 0 0 1-8.2 3.02c-2.95.64-5.76.95-8.43.95-2.63 0-5.36-.33-8.2-.98a27.16 27.16 0 0 1-7.8-3.1 18.29 18.29 0 0 1-5.83-5.44 13.9 13.9 0 0 1-2.29-8.06c0-3.42.82-6.25 2.46-8.5a17.8 17.8 0 0 1 6.22-5.35 27.88 27.88 0 0 1 8.3-2.74c3.02-.51 5.94-.77 8.76-.77 2.57 0 5.26.33 8.05.98 2.78.66 5.34 1.68 7.66 3.06a17.62 17.62 0 0 1 5.7 5.38 13.93 13.93 0 0 1 2.21 7.94Zm-11.6-.14a11.17 11.17 0 0 0-3.55-8.3 11.74 11.74 0 0 0-3.83-2.38c-1.46-.57-3-.85-4.64-.85-1.7 0-3.38.25-5.07.74a15.8 15.8 0 0 0-4.57 2.15 11.15 11.15 0 0 0-3.3 3.55 9.44 9.44 0 0 0-1.27 4.88c0 1.83.3 3.5.88 5 .59 1.5 1.43 2.78 2.53 3.86 1.1 1.08 2.4 1.91 3.9 2.5 1.5.58 3.17.88 5 .88 1.97 0 3.8-.23 5.48-.67a12.18 12.18 0 0 0 4.43-2.15 9.98 9.98 0 0 0 2.95-3.76c.7-1.52 1.06-3.34 1.06-5.45ZM333.07 99.66l-.63 6.6c-2.3-.18-4.57-.36-6.82-.52a234.5 234.5 0 0 1-6.82-.6c-.37 4.46-.77 8.89-1.2 13.3a13615.92 13615.92 0 0 0-1.4 14.69c0 .65.07 1.32.2 2 .15.68.38 1.3.71 1.83.33.54.76.98 1.3 1.34.54.35 1.21.52 2 .52 1.55 0 2.91-.36 4.08-1.09a10.1 10.1 0 0 0 2.96-2.77c.8-1.13 1.43-2.38 1.9-3.77.47-1.38.77-2.75.91-4.1.56 2.2.85 4.37.85 6.53 0 2.06-.33 3.93-.99 5.59a12.14 12.14 0 0 1-6.96 7.07c-1.64.65-3.45.98-5.41.98-2.07 0-3.87-.35-5.42-1.05a10.38 10.38 0 0 1-3.83-2.92c-1-1.24-1.76-2.7-2.25-4.4-.5-1.68-.74-3.49-.74-5.41v-1.06a4510.96 4510.96 0 0 0 1.16-14.52c.35-4.43.67-8.91.95-13.46a191.12 191.12 0 0 1-7.52-.7l.28-5.56c.98-.05 2.01-.2 3.1-.49 1.07-.28 2.11-.66 3.12-1.13 1-.46 1.95-1.03 2.81-1.68a9.3 9.3 0 0 0 2.15-2.25 30.17 30.17 0 0 0 2.64-5.84c.35-1.08.64-2.14.87-3.2.24-1.05.4-2.07.5-3.06l5.76.14-1.83 17.58 13.57 1.4Z"/>
    <path d="m380.53 144.87-19.26 3.59.21-6.33a7.45 7.45 0 0 1-1.97 1.72c-.8.5-1.65.9-2.57 1.2a16.6 16.6 0 0 1-5.44.87c-5.86 0-10.08-1.4-12.66-4.21-2.58-2.82-3.87-7.06-3.87-12.73 0-2.2.02-4.36.07-6.47l.14-6.4a212.53 212.53 0 0 0-5.55-3.16 214.19 214.19 0 0 1-5.56-3.17l22.79-.14a483.2 483.2 0 0 1-1.17 10.66 89.4 89.4 0 0 0-.66 10.58c0 2.95.65 5.1 1.97 6.47 1.3 1.36 3.44 2.03 6.4 2.03 1.5 0 3-.42 4.5-1.26a11.5 11.5 0 0 0 3.58-3.02l.91-18-12.58-6.12 24.19-.21-4.79 29.95 11.32 4.15Z"/>
    <path d="M419.84 110.77c0 1.92-.59 3.5-1.76 4.74a6.17 6.17 0 0 1-4.71 1.87 5.99 5.99 0 0 1-3.38-.81 8.87 8.87 0 0 1-2-1.83 21.25 21.25 0 0 0-1.62-1.83 3.1 3.1 0 0 0-2.28-.8c-1.73 0-3.12.54-4.15 1.65-1.03 1.1-1.8 2.4-2.32 3.9-.05.1-.08.54-.1 1.33l-.11 3.03a655.06 655.06 0 0 0-.28 8.15l-.14 3.48c-.05 1.01-.07 1.68-.07 2l17.08 6.2-40.64 4.14a1279.37 1279.37 0 0 1 14.63-9.14l-2.6-24.54-15.68-4.21 28.33-6.2-.14 6.48a40.5 40.5 0 0 1 6.08-3.48c2.09-.96 4.4-1.44 6.93-1.44a12.58 12.58 0 0 1 5.13 1.12c.8.38 1.5.88 2.11 1.51.61.63 1.06 1.4 1.34 2.29.23.84.35 1.64.35 2.39Z"/>
    <path d="M458.58 89.81a5.22 5.22 0 0 1-5.34 5.27c-1.5 0-2.83-.48-3.97-1.47a4.85 4.85 0 0 1-1.73-3.87c0-1.59.64-2.9 1.9-3.93a5.93 5.93 0 0 0-1.69-2.71 4.22 4.22 0 0 0-2.95-1.09c-1.5 0-2.68.5-3.55 1.51a9.75 9.75 0 0 0-1.93 3.66 20 20 0 0 0-.78 4.46 65.65 65.65 0 0 0 .14 10.58c.19 2.23.4 4.47.64 6.72h13.78v6.4h-12.73l3.73 32.2.31 3.27a26.87 26.87 0 0 1-.8 10.48 19.73 19.73 0 0 1-3 6.33 15.6 15.6 0 0 1-5.06 4.5 14.3 14.3 0 0 1-7.13 1.72 14.86 14.86 0 0 1-9.95-3.87 13.94 13.94 0 0 1-3.2-4.32 12.3 12.3 0 0 1-1.2-5.38c0-1.55.52-2.81 1.55-3.8a5.3 5.3 0 0 1 3.8-1.48 6.03 6.03 0 0 1 3.9 1.48 5.1 5.1 0 0 1 1.27 1.65 5.4 5.4 0 0 1-1.23 6.01 5.94 5.94 0 0 0 1.68 2.64c.8.73 1.74 1.1 2.81 1.1 1.27 0 2.31-.4 3.13-1.17a8.26 8.26 0 0 0 1.94-2.81c.47-1.1.78-2.27.95-3.52.16-1.24.24-2.33.24-3.27 0-1.78-.1-3.56-.31-5.34-.21-1.78-.46-3.56-.74-5.34l-.07-.07-3.8-31.01h-10.48v-6.4h9.78a83.78 83.78 0 0 1-.7-10.55c0-2.62.25-5.27.77-7.94.51-2.67 1.4-5.08 2.67-7.2a15.78 15.78 0 0 1 5.03-5.25c2.08-1.36 4.7-2.04 7.84-2.04a14.94 14.94 0 0 1 10.09 3.97c1.33 1.25 2.4 2.71 3.2 4.4.8 1.69 1.2 3.52 1.2 5.48Z"/>
  </g>
</svg>